<?xml version="1.0" encoding="UTF-8"?>
<svg id="Layer_1" xmlns="http://www.w3.org/2000/svg" viewBox="0 0 822 498">
  <defs>
    <style>
      .cls-1 {
        fill: none;
      }

      .cls-2 {
        fill: #519b66;
      }
    </style>
  </defs>
  <path class="cls-1" d="M383.13,287.1c6.47,6.76,14.69,10.14,24.65,10.14,9.25,0,16.79-2.92,22.63-8.75,5.83-5.83,10.03-13.23,12.59-22.2s3.84-18.28,3.84-27.96c0-20.21-3.56-36.29-10.67-48.24-7.12-11.95-17.65-17.93-31.59-17.93-9.39,0-17.08,2.99-23.05,8.96-5.98,5.98-10.25,13.52-12.81,22.63-2.56,9.11-3.84,18.57-3.84,28.39s1.42,19.93,4.27,29.88c2.85,9.96,7.5,18.32,13.98,25.08Z"/>
  <path class="cls-1" d="M380.8,341.97c-12.33-6.69-23.73-10.03-34.2-10.03-14.79,0-28.22,5.57-40.28,16.72-12.06,11.15-18.09,25-18.09,41.55,0,21.15,7.36,39.72,22.09,55.73,14.73,16.01,31.24,24.01,49.55,24.01,10.27,0,20.4-2.75,30.4-8.26,10-5.51,17.87-13.09,23.61-22.75,5.74-9.66,8.61-19.59,8.61-29.79,0-14.45-3.87-27.59-11.6-39.42-7.74-11.82-17.77-21.08-30.1-27.77Z"/>
  <path class="cls-1" d="M120.58,384.42c4.02-7.02,6.03-14.02,6.03-20.98,0-7.5-1.55-13.76-4.66-18.8-3.11-5.03-7.65-8.83-13.63-11.4-5.98-2.57-14.78-3.85-26.4-3.85h-3.95v65.56h18.14c12.29,0,20.45-3.51,24.47-10.54Z"/>
  <path class="cls-1" d="M549.52,341.97c-12.33-6.69-23.73-10.03-34.2-10.03-14.79,0-28.22,5.57-40.28,16.72-12.06,11.15-18.09,25-18.09,41.55,0,21.15,7.36,39.72,22.09,55.73,14.73,16.01,31.24,24.01,49.55,24.01,10.27,0,20.4-2.75,30.4-8.26,10-5.51,17.87-13.09,23.61-22.75,5.74-9.66,8.61-19.59,8.61-29.79,0-14.45-3.87-27.59-11.6-39.42-7.74-11.82-17.77-21.08-30.1-27.77Z"/>
  <path class="cls-1" d="M119.06,400.33c-5.37-1.49-15.18-2.23-29.44-2.23h-11.65v47.32c0,6.55.25,10.81.76,12.77.51,1.96,1.66,4.02,3.45,6.18s4.68,3.9,8.67,5.22c3.98,1.32,9.73,1.97,17.23,1.97,11.62,0,19.83-2.68,24.62-8.05,4.79-5.37,7.19-13.32,7.19-23.86s-2.13-19.86-6.38-26.75c-4.26-6.89-9.07-11.08-14.44-12.57Z"/>
  <path class="cls-2" d="M168.28,262.45h-13.87c0,10.67-2.53,18.46-7.58,23.37-5.06,4.91-11.21,7.37-18.47,7.37h-28.6c.57-4.84.85-11.1.85-18.78v-35.01l5.55-.21c4.7-.14,8.46.18,11.31.96,2.85.78,5.16,2.53,6.94,5.23,1.78,2.7,2.67,6.9,2.67,12.59h14.09v-51.87h-16.44c.43,9.96.71,16.15.85,18.57h-24.97v-32.02c0-5.26.53-9.25,1.6-11.95,1.07-2.7,2.59-4.45,4.59-5.23,1.99-.78,4.7-1.24,8.11-1.39l7.69-.21c7.11-.28,13.2,1.6,18.25,5.66,5.05,4.05,7.58,11.35,7.58,21.88h14.09l-1.28-41.41H54.51v16.44l16.01-.64c-.57,4.84-.85,11.25-.85,19.21v81.76c0,5.55-.57,9.6-1.71,12.17-1.14,2.56-2.7,4.24-4.7,5.02-1.99.78-4.91,1.25-8.75,1.39v14.09h112.71l1.07-46.96Z"/>
  <path class="cls-2" d="M219.51,302.79c11.1,6.69,23.83,10.03,38.21,10.03,10.96,0,22.06-2.46,33.3-7.37,11.24-4.91,21.56-13.84,30.95-26.79l-10.25-9.39c-5.98,8.11-13.34,14.52-22.09,19.21-8.75,4.7-17.68,7.04-26.79,7.04s-17.44-2.67-24.12-8.01c-6.69-5.34-11.81-12.77-15.37-22.31-3.56-9.53-5.34-20.42-5.34-32.66,0-10.67,1.63-20.63,4.91-29.88,3.27-9.25,8.22-16.68,14.84-22.31,6.62-5.62,14.69-8.43,24.23-8.43,20.06.29,32.02,12.24,35.86,35.86h13.87v-49.73h-16.44l.85,8.96h-.21c-5.55-3.27-11.63-5.83-18.25-7.68-6.62-1.85-12.77-2.77-18.47-2.77-15.8,0-29.32,3.84-40.56,11.53-11.24,7.68-19.75,17.68-25.51,29.99-5.76,12.31-8.65,25.22-8.65,38.74s3.06,26.93,9.18,38.53c6.12,11.6,14.73,20.74,25.83,27.43Z"/>
  <path class="cls-2" d="M363.38,301.51c11.1,7.54,25.19,11.31,42.26,11.31,15.94,0,29.56-3.91,40.88-11.74,11.31-7.83,19.81-17.75,25.51-29.78,5.69-12.02,8.54-24.23,8.54-36.61s-2.7-24.97-8.11-36.93c-5.41-11.95-13.7-21.81-24.87-29.56-11.17-7.75-24.94-11.63-41.3-11.63s-29.56,3.88-40.88,11.63c-11.31,7.76-19.82,17.61-25.51,29.56-5.69,11.95-8.54,24.26-8.54,36.93,0,13.38,2.56,25.97,7.69,37.78,5.12,11.81,13.23,21.49,24.33,29.03ZM368.72,203.75c2.56-9.11,6.83-16.65,12.81-22.63,5.98-5.98,13.66-8.96,23.05-8.96,13.95,0,24.48,5.98,31.59,17.93,7.11,11.95,10.67,28.04,10.67,48.24,0,9.68-1.28,19-3.84,27.96s-6.76,16.37-12.59,22.2c-5.84,5.84-13.38,8.75-22.63,8.75-9.96,0-18.18-3.38-24.65-10.14-6.48-6.76-11.14-15.12-13.98-25.08-2.85-9.96-4.27-19.92-4.27-29.88s1.28-19.28,3.84-28.39Z"/>
  <path class="cls-2" d="M123.67,391.72c12.43-7.29,18.65-17.26,18.65-29.89,0-6.42-1.52-12.14-4.56-17.17-3.04-5.03-6.72-8.88-11.05-11.55-4.33-2.67-8.85-4.48-13.58-5.42-4.73-.94-12.77-1.42-24.12-1.42h-38.81v1.52c3.04,0,5.4.47,7.09,1.42,1.69.94,2.69,2.4,2.99,4.35.31,1.96.46,5.64.46,11.04v112.4c0,7.63-.64,12.37-1.93,14.23-1.29,1.86-4.22,2.79-8.82,2.79v1.52h57.66c10.87,0,19.34-1.27,25.38-3.8,6.05-2.54,11.42-7.65,16.11-15.36,4.69-7.7,7.04-16.24,7.04-25.63,0-10.06-2.74-18.63-8.21-25.69-5.47-7.06-13.58-11.51-24.32-13.33ZM77.97,329.4h3.95c11.62,0,20.42,1.29,26.4,3.85,5.98,2.57,10.52,6.37,13.63,11.4,3.11,5.03,4.66,11.3,4.66,18.8,0,6.96-2.01,13.95-6.03,20.98-4.02,7.03-12.18,10.54-24.47,10.54h-18.14v-65.56ZM132.69,463.51c-4.8,5.37-13.01,8.05-24.62,8.05-7.5,0-13.24-.65-17.23-1.97-3.99-1.31-6.88-3.06-8.67-5.22s-2.94-4.22-3.45-6.18c-.5-1.96-.76-6.21-.76-12.77v-47.32h11.65c14.25,0,24.07.74,29.44,2.23,5.37,1.49,10.19,5.67,14.44,12.57,4.26,6.89,6.38,15.81,6.38,26.75s-2.4,18.49-7.19,23.86Z"/>
  <path class="cls-2" d="M259.72,464.07c-4.08,4.33-10.51,6.49-19.28,6.49h-18.22c-10.45,0-17.84-1.84-22.16-5.52-4.32-3.68-6.48-10.02-6.48-19v-104.78c0-4.53.23-7.43.71-8.71.47-1.28,1.45-2.4,2.94-3.34,1.49-.94,4.09-1.42,7.8-1.42v-1.52h-40.03v1.52c5.4.14,8.65,1.16,9.73,3.09,1.08,1.92,1.62,5.05,1.62,9.37v122.12c0,4.26-.69,7.26-2.08,9.02-1.39,1.75-4.41,2.63-9.07,2.63v1.52h102.85v-35.87h-1.52c-.47,11.96-2.75,20.1-6.83,24.42Z"/>
  <path class="cls-2" d="M360.48,324.03c-17.5,0-32.63,4.24-45.4,12.72-12.77,8.48-22.33,19.44-28.68,32.88-6.35,13.45-9.53,26.55-9.53,39.31,0,18.92,6.59,35.13,19.76,48.64,13.17,13.51,30.1,20.27,50.77,20.27,25.47,0,45.9-8.37,61.31-25.13,15.4-16.75,23.1-37.39,23.1-61.91,0-19.05-6.66-34.94-19.96-47.68-13.31-12.73-30.43-19.1-51.38-19.1ZM413.89,438.94c-5.74,9.66-13.61,17.24-23.61,22.75-10,5.51-20.13,8.26-30.4,8.26-18.31,0-34.83-8-49.55-24.01-14.73-16.01-22.09-34.59-22.09-55.73,0-16.55,6.03-30.4,18.09-41.55,12.06-11.15,25.48-16.72,40.28-16.72,10.47,0,21.87,3.34,34.2,10.03,12.33,6.69,22.36,15.94,30.1,27.77,7.73,11.82,11.6,24.96,11.6,39.42,0,10.2-2.87,20.13-8.61,29.79Z"/>
  <path class="cls-2" d="M783.1,471.13c-1.18-1.58-2.25-5.18-3.2-10.81l-15.69-113.08c-.41-2.97-.61-5.3-.61-6.99,0-7.91,3.98-12.07,11.95-12.47v-1.52h-23.57l-52.66,122.08-52.49-122.08h-28.15v1.52c2.57,0,5.25.68,8.03,2.03s5.56,5.37,8.33,12.06l-17.07,120.58c-.27,2.3-.68,4.38-1.22,6.24-.54,1.86-1.3,3.21-2.28,4.05s-3.19,1.26-6.64,1.26v1.52h22.8v-1.52c-4.56,0-6.83-1.94-6.83-5.83,0-2.15.14-4.05.41-5.73l15.14-110.24,53.8,123.32h1.01l53.51-123.52,15.32,109.62c.41,2.95.6,4.93.6,5.94,0,4.43-2.24,6.58-6.71,6.44v1.52h33.54v-1.52c-3.72-.34-6.16-1.29-7.34-2.87Z"/>
  <path class="cls-2" d="M599.03,349.08c1.73-4.84,4.11-9.48,6.67-13.96,5.08-8.88,11.12-17.5,19.49-23.38,11.36-7.99,24.47-8.82,37.44-12.2,11.6-3.02,23.15-8.01,33.63-13.79,21.61-11.92,39.59-29.34,53.13-49.91,24.7-37.52,37.48-78.87,39.23-123.48,1.3-33.14-3.77-65.24-19.89-94.91-2.25-4.14-3.82-8.13-8.71-2.28-28.9,34.6-65.81,59.61-102.3,85.15-54.51,38.15-87.68,87.74-83.77,157.01.07,1.18,1.07,3.42-1.69,3.68-4.65-26.92-2.39-53.41,6.96-78.75,5.45-14.77,8.78-29.05,5.46-44.55-.04-.2.7-.56,1.32-1.03,1.06,3.61,2.01,7,3.05,10.36.47,1.51-.7,4.18,1.78,4.19,1.13,0,2.4-2.23,3.38-3.61,5.99-8.4,11.57-17.11,18.01-25.15,3.42-4.27,3.16-7.13-.08-11.08-16.34-19.91-36-35.35-60.14-44.73-11.75-4.56-12.06-4.34-11.45,7.8.98,19.65-.96,38.99-4.19,58.38-4.55,27.29-10.8,54.5-7.52,82.55,3.79,32.4,18.69,58.53,44.14,78.82,5.87,4.68,10.82,6.33,15.17-2.24,34.67-68.35,90.39-120.09,141.3-175.52-.89,1.47-1.71,2.98-2.68,4.39-18.86,27.3-42.09,51.06-62.6,77.03-17.56,22.22-33.7,45.4-47.7,69.99-14.32,25.16-29.59,50.65-30.88,80.41-20.66-22.48-55.35-30.3-84.09-20.01-28.74,10.29-50.32,37.59-54.95,67.76-2.22,14.45-.75,29.65,5.48,42.88,11.88,25.24,40.64,40.35,68.52,39.36,21.98-.78,43.48-10.76,58.26-27.04,11.06-12.19,18.13-27.96,20.86-44.12,1.37-8.13,2.09-17.24.58-25.41-1.59-8.61-4.99-15.47-3.34-24.67.48-2.7,1.22-5.34,2.15-7.92ZM582.61,438.94c-5.74,9.66-13.61,17.24-23.61,22.75-10,5.51-20.13,8.26-30.4,8.26-18.31,0-34.82-8-49.55-24.01-14.73-16.01-22.09-34.59-22.09-55.73,0-16.55,6.03-30.4,18.09-41.55,12.06-11.15,25.48-16.72,40.28-16.72,10.47,0,21.87,3.34,34.2,10.03,12.33,6.69,22.36,15.94,30.1,27.77,7.73,11.82,11.6,24.96,11.6,39.42,0,10.2-2.87,20.13-8.61,29.79Z"/>
</svg>