<svg viewBox="0 0 24 24" xmlns="http://www.w3.org/2000/svg"><g display="inline"><path d="M5.18 293.65c-1.682 0-3.13 1.313-3.13 2.989v12.023c0 1.676 1.45 2.988 3.13 2.988h13.64c1.68 0 3.13-1.312 3.13-2.988v-9.127c0-1.068-.921-1.885-1.95-1.885h-6.654c-.24 0-.433-.133-.506-.28l-1.03-2.333c-.433-.87-1.335-1.387-2.296-1.387zm4.334 2c.24 0 .432.132.506.28.341.776.687 1.56 1.029 2.332.434.87 1.335 1.388 2.297 1.388h6.603v9.012c0 .527-.45.988-1.129.988H5.18c-.68 0-1.13-.46-1.13-.988V296.64c0-.527.451-.989 1.13-.989h4.334z" style="line-height:normal;font-variant-ligatures:normal;font-variant-position:normal;font-variant-caps:normal;font-variant-numeric:normal;font-variant-alternates:normal;font-variant-east-asian:normal;font-feature-settings:normal;font-variation-settings:normal;text-indent:0;text-align:start;text-decoration-line:none;text-decoration-style:solid;text-decoration-color:#000;text-transform:none;text-orientation:mixed;white-space:normal;shape-padding:0;shape-margin:0;inline-size:0;isolation:auto;mix-blend-mode:normal;solid-color:#000;solid-opacity:1" transform="translate(0 -290.65)" color="#000000" font-style="normal" font-variant="normal" font-weight="400" font-stretch="normal" font-size="medium" font-family="sans-serif" text-decoration="none" letter-spacing="normal" word-spacing="normal" writing-mode="lr-tb" direction="ltr" dominant-baseline="auto" baseline-shift="baseline" text-anchor="start" clip-rule="nonzero" display="inline" overflow="visible" visibility="visible" opacity="1" color-interpolation="sRGB" color-interpolation-filters="linearRGB" vector-effect="none" fill="#ccd6f6" fill-opacity="1" fill-rule="nonzero" stroke="none" stroke-linecap="round" stroke-linejoin="round" stroke-miterlimit="4" stroke-dasharray="none" stroke-dashoffset="0" stroke-opacity="1" color-rendering="auto" image-rendering="auto" shape-rendering="auto" text-rendering="auto" enable-background="accumulate" stop-color="#ccd6f6" stop-opacity="1" class="fill-000000 stop-color-000000"></path></g></svg>